<?xml version="1.0" encoding="UTF-8" standalone="no"?>
<!-- Created with Inkscape (http://www.inkscape.org/) -->

<svg
   xmlns:dc="http://purl.org/dc/elements/1.1/"
   xmlns:cc="http://creativecommons.org/ns#"
   xmlns:rdf="http://www.w3.org/1999/02/22-rdf-syntax-ns#"
   xmlns:svg="http://www.w3.org/2000/svg"
   xmlns="http://www.w3.org/2000/svg"
   xmlns:sodipodi="http://sodipodi.sourceforge.net/DTD/sodipodi-0.dtd"
   xmlns:inkscape="http://www.inkscape.org/namespaces/inkscape"
   width="165.51321mm"
   height="29.408236mm"
   viewBox="0 0 165.51322 29.408236"
   version="1.1"
   id="svg823"
   inkscape:version="0.92.2 5c3e80d, 2017-08-06"
   sodipodi:docname="text_trackeRapp.svg">
  <defs
     id="defs817" />
  <sodipodi:namedview
     id="base"
     pagecolor="#ffffff"
     bordercolor="#666666"
     borderopacity="1.0"
     inkscape:pageopacity="0.0"
     inkscape:pageshadow="2"
     inkscape:zoom="1"
     inkscape:cx="264.24802"
     inkscape:cy="12.432201"
     inkscape:document-units="mm"
     inkscape:current-layer="g2575"
     showgrid="true"
     inkscape:pagecheckerboard="false"
     borderlayer="false"
     inkscape:showpageshadow="false"
     showguides="true"
     inkscape:window-width="1680"
     inkscape:window-height="1028"
     inkscape:window-x="0"
     inkscape:window-y="0"
     inkscape:window-maximized="1"
     inkscape:measure-start="-150,670"
     inkscape:measure-end="-145.462,665.691"
     fit-margin-top="0"
     fit-margin-left="0"
     fit-margin-right="0"
     fit-margin-bottom="0">
    <inkscape:grid
       type="xygrid"
       id="grid1405"
       originx="27.384685"
       originy="-33.267194" />
  </sodipodi:namedview>
  <metadata
     id="metadata820">
    <rdf:RDF>
      <cc:Work
         rdf:about="">
        <dc:format>image/svg+xml</dc:format>
        <dc:type
           rdf:resource="http://purl.org/dc/dcmitype/StillImage" />
        <dc:title></dc:title>
      </cc:Work>
    </rdf:RDF>
  </metadata>
  <g
     inkscape:label="Layer 1"
     inkscape:groupmode="layer"
     id="layer1"
     transform="translate(27.384682,-234.32457)">
    <g
       id="g2575">
      <g
         aria-label="trackeRapp
"
         style="font-style:normal;font-variant:normal;font-weight:normal;font-stretch:normal;font-size:30.3177681px;line-height:1.25;font-family:'M+ 2p';-inkscape-font-specification:'M+ 2p';letter-spacing:0px;word-spacing:0px;fill:#222d32;fill-opacity:0.94117647;stroke:none;stroke-width:0.75794423"
         id="text2556">
        <path
           d="m -20.0781,241.90401 h 5.42688 v 2.94083 h -5.42688 v 6.45768 q 0,1.78875 0.454766,2.42542 0.454767,0.60636 1.63716,0.60636 1.455253,0 2.728599,-0.5154 l 0.515402,2.94082 q -1.879702,0.60635 -4.062581,0.60635 -2.789235,0 -4.062581,-1.24302 -1.243028,-1.24303 -1.243028,-4.12322 v -7.15499 h -3.274319 v -2.94083 h 3.274319 v -5.76037 h 4.032263 z"
           style="font-style:normal;font-variant:normal;font-weight:bold;font-stretch:normal;font-family:'M+ 2p';-inkscape-font-specification:'M+ 2p Bold';fill:#222d32;fill-opacity:0.94117647;stroke-width:0.75794423"
           id="path818" />
        <path
           d="m -10.461209,241.29766 h 3.7594033 l 0.060636,3.03177 h 0.060636 q 2.6982814,-3.33495 7.24594657,-3.33495 v 3.21368 q -3.36527227,0 -5.24497387,1.63716 -1.8493839,1.60684 -1.8493839,4.33544 v 6.88214 h -4.0322632 z"
           style="font-style:normal;font-variant:normal;font-weight:bold;font-stretch:normal;font-family:'M+ 2p';-inkscape-font-specification:'M+ 2p Bold';fill:#222d32;fill-opacity:0.94117647;stroke-width:0.75794423"
           id="path820" />
        <path
           d="m 9.7024756,240.99448 q 3.6078144,0 5.1843384,1.42493 1.576524,1.39462 1.576524,4.54767 v 5.85133 q 0,2.15256 0.454766,4.24449 h -3.729085 q -0.181907,-1.00049 -0.27286,-2.33447 h -0.06064 q -0.848897,1.24303 -2.30415,1.94034 -1.424935,0.6973 -3.12273,0.6973 -2.2131971,0 -3.5471789,-1.21271 -1.303664,-1.24302 -1.303664,-3.4259 0,-2.63765 2.2131971,-4.21417 2.2435148,-1.60685 6.4273668,-1.60685 h 1.303664 v -0.0909 q 0,-1.60684 -0.636673,-2.24351 -0.636673,-0.63668 -2.2738327,-0.63668 -2.9711413,0 -5.6087871,1.3643 l -0.5760376,-2.94082 q 2.880188,-1.3643 6.275778,-1.3643 z m -3.4259078,11.4298 q 0,0.97017 0.5760376,1.51589 0.5760376,0.54572 1.5765239,0.54572 1.7281127,0 2.9105057,-1.12176 1.182393,-1.12176 1.182393,-2.81955 v -1.03081 h -1.303664 q -2.3951037,0 -3.66845,0.81858 -1.2733462,0.78826 -1.2733462,2.09193 z"
           style="font-style:normal;font-variant:normal;font-weight:bold;font-stretch:normal;font-family:'M+ 2p';-inkscape-font-specification:'M+ 2p Bold';fill:#222d32;fill-opacity:0.94117647;stroke-width:0.75794423"
           id="path822" />
        <path
           d="m 32.385374,253.30349 0.909533,2.94083 q -2.486057,1.12175 -5.15402,1.12175 -3.789721,0 -6.093872,-2.21319 -2.30415,-2.2132 -2.30415,-5.9726 0,-3.85036 2.213197,-6.00292 2.243515,-2.18288 6.184825,-2.18288 2.667963,0 5.15402,1.12176 l -0.909533,3.00146 q -1.910019,-1.09144 -4.062581,-1.09144 -2.152561,0 -3.365272,1.33398 -1.182393,1.33398 -1.182393,3.82004 0,2.42542 1.243029,3.82004 1.273346,1.39461 3.304636,1.39461 2.18288,0 4.062581,-1.09144 z"
           style="font-style:normal;font-variant:normal;font-weight:bold;font-stretch:normal;font-family:'M+ 2p';-inkscape-font-specification:'M+ 2p Bold';fill:#222d32;fill-opacity:0.94117647;stroke-width:0.75794423"
           id="path824" />
        <path
           d="m 41.300695,250.08981 h -0.06063 v 6.97309 h -3.94131 v -22.73833 h 3.94131 v 13.12759 h 0.06063 l 6.002918,-6.1545 h 4.699254 l -7.488488,7.48849 7.640077,8.27675 h -4.699254 z"
           style="font-style:normal;font-variant:normal;font-weight:bold;font-stretch:normal;font-family:'M+ 2p';-inkscape-font-specification:'M+ 2p Bold';fill:#222d32;fill-opacity:0.94117647;stroke-width:0.75794423"
           id="path826" />
        <path
           d="m 57.140306,247.90693 h 7.397535 q -0.03032,-1.97065 -1.000486,-3.00146 -0.939851,-1.06112 -2.667964,-1.06112 -1.667477,0 -2.667963,1.06112 -0.970169,1.06112 -1.061122,3.00146 z m 0,2.69828 q 0.151589,1.78875 1.364299,2.84987 1.243029,1.03081 3.122731,1.03081 2.243514,0 4.456711,-1.12176 l 0.909534,2.78923 q -2.7286,1.21271 -5.760376,1.21271 -3.577497,0 -5.821012,-2.21319 -2.213197,-2.2132 -2.213197,-5.9726 0,-3.82004 2.061608,-6.00292 2.061608,-2.18288 5.57847,-2.18288 3.516861,0 5.457198,2.09193 1.970655,2.09192 1.970655,6.00291 0,0.75795 -0.09095,1.51589 z"
           style="font-style:normal;font-variant:normal;font-weight:bold;font-stretch:normal;font-family:'M+ 2p';-inkscape-font-specification:'M+ 2p Bold';fill:#222d32;fill-opacity:0.94117647;stroke-width:0.75794423"
           id="path828" />
        <path
           d="m 78.220631,238.23556 h -2.18288 v 6.97309 H 77.8265 q 5.396562,0 5.396562,-3.7594 0,-1.66748 -1.152075,-2.42543 -1.152075,-0.78826 -3.850356,-0.78826 z m -2.18288,10.18677 v 8.64057 h -4.183852 v -22.13197 h 6.063554 q 4.972114,0 7.215629,1.5462 2.273832,1.51589 2.273832,4.57799 0,2.12224 -1.182393,3.72908 -1.152075,1.60684 -3.153048,2.24352 v 0.0606 q 1.455253,0.8489 2.516375,3.60782 l 2.425422,6.36673 h -4.365759 l -2.30415,-6.27578 q -0.54572,-1.45525 -1.243029,-1.91002 -0.697309,-0.45477 -2.395104,-0.45477 z"
           style="font-style:normal;font-variant:normal;font-weight:bold;font-stretch:normal;font-family:'M+ 2p';-inkscape-font-specification:'M+ 2p Bold';fill:#222d32;fill-opacity:0.94117647;stroke-width:0.75794423"
           id="path830" />
        <path
           d="m 97.15076,240.99448 q 3.15305,0 4.48703,1.3643 1.33398,1.33398 1.33398,4.6083 v 5.85133 q 0,2.12224 0.45477,4.24449 h -1.39462 q -0.27286,-1.39462 -0.33349,-3.12273 h -0.0606 q -0.81858,1.57652 -2.395104,2.51637 -1.546206,0.90953 -3.547179,0.90953 -2.243515,0 -3.577497,-1.21271 -1.333981,-1.24302 -1.333981,-3.33495 0,-2.66796 2.334468,-4.15354 2.364786,-1.51588 6.700227,-1.51588 h 1.728116 v -0.15159 q 0,-2.69828 -0.97017,-3.72909 -0.939853,-1.06112 -3.42591,-1.06112 -2.940824,0 -5.305609,1.39462 l -0.363814,-1.15208 q 2.546693,-1.45525 5.669423,-1.45525 z m -4.972114,11.76329 q 0,1.57653 1.000486,2.51638 1.030804,0.93985 2.758917,0.93985 2.273833,0 3.94131,-1.66748 1.667481,-1.69779 1.667481,-4.21417 v -2.03129 h -1.728116 q -3.66845,0 -5.669423,1.18239 -1.970655,1.1824 -1.970655,3.27432 z"
           style="font-style:normal;font-variant:normal;font-weight:300;font-stretch:normal;font-family:'M+ 2p';-inkscape-font-specification:'M+ 2p Light'"
           id="path832" />
        <path
           d="m 114.70806,257.36607 q -3.85035,0 -5.39656,-3.27431 h -0.0606 v 9.64105 h -1.42494 v -22.43515 h 1.3643 l 0.0303,3.06209 h 0.0606 q 1.54621,-3.36527 5.42688,-3.36527 2.97115,0 4.66894,2.15256 1.6978,2.15256 1.6978,6.03324 0,3.85035 -1.72812,6.03323 -1.72811,2.15256 -4.63862,2.15256 z m 3.54718,-3.03177 q 1.42494,-1.84939 1.42494,-5.15402 0,-3.30464 -1.42494,-5.12371 -1.39461,-1.84938 -3.82004,-1.84938 -2.33446,0 -3.7594,1.81907 -1.42493,1.78874 -1.42493,4.91147 v 0.48509 q 0,3.18336 1.45525,4.97211 1.45525,1.75843 3.72908,1.75843 2.42543,0 3.82004,-1.81906 z"
           style="font-style:normal;font-variant:normal;font-weight:300;font-stretch:normal;font-family:'M+ 2p';-inkscape-font-specification:'M+ 2p Light'"
           id="path834" />
        <path
           d="m 131.76181,257.36607 q -3.85036,0 -5.39657,-3.27431 h -0.0606 v 9.64105 h -1.42494 v -22.43515 h 1.3643 l 0.0303,3.06209 h 0.0606 q 1.5462,-3.36527 5.42688,-3.36527 2.97114,0 4.66893,2.15256 1.6978,2.15256 1.6978,6.03324 0,3.85035 -1.72812,6.03323 -1.72811,2.15256 -4.63861,2.15256 z m 3.54717,-3.03177 q 1.42494,-1.84939 1.42494,-5.15402 0,-3.30464 -1.42494,-5.12371 -1.39461,-1.84938 -3.82003,-1.84938 -2.33447,0 -3.75941,1.81907 -1.42493,1.78874 -1.42493,4.91147 v 0.48509 q 0,3.18336 1.45525,4.97211 1.45525,1.75843 3.72909,1.75843 2.42542,0 3.82003,-1.81906 z"
           style="font-style:normal;font-variant:normal;font-weight:300;font-stretch:normal;font-family:'M+ 2p';-inkscape-font-specification:'M+ 2p Light'"
           id="path836" />
      </g>
    </g>
  </g>
</svg>
